<svg id="Capa_1" enable-background="new 0 0 512 512" height="512" viewBox="0 0 512 512" width="512" xmlns="http://www.w3.org/2000/svg"><g><g><path clip-rule="evenodd" d="m241.274 311.331v-53.709c0-28.554-18.492-34.418-42.082-48.582h-149.61c-23.59 14.164-42.082 20.028-42.082 48.582v53.709c0 6.6 3.03 5.779 8.071 5.779h15.576 74.564 18.662 18.634 74.621 15.575c5.041 0 8.071.822 8.071-5.779z" fill="#f9f7f7" fill-rule="evenodd"/></g><path d="m218.081 449.238h-86.208v-51.668l4.753 4.755c1.464 1.465 3.384 2.198 5.304 2.198 1.919 0 3.838-.732 5.302-2.196 2.93-2.928 2.93-7.677.002-10.606l-17.557-17.563c-.002-.002-.004-.004-.006-.006-.125-.125-.229-.217-.324-.294-1.325-1.177-3.064-1.898-4.975-1.898-2.072 0-3.947.84-5.304 2.198-.002.002-.003.002-.004.004l-17.53 17.563c-2.926 2.932-2.921 7.681.01 10.607 1.464 1.461 3.381 2.191 5.298 2.191 1.922 0 3.844-.734 5.309-2.202l4.721-4.73v59.147c0 4.142 3.358 7.5 7.5 7.5h93.708c4.142 0 7.5-3.358 7.5-7.5s-3.357-7.5-7.499-7.5z"/><path d="m407.599 134.078c-2.929-2.928-7.678-2.927-10.606.001l-4.753 4.755v-59.167c0-4.142-3.358-7.5-7.5-7.5h-93.68c-4.142 0-7.5 3.358-7.5 7.5s3.358 7.5 7.5 7.5h86.18v51.667l-4.754-4.755c-2.929-2.929-7.677-2.93-10.607-.001-2.929 2.929-2.93 7.677-.001 10.607l17.558 17.563c.001.001.003.002.004.003 1.357 1.355 3.231 2.194 5.3 2.194 1.941 0 3.703-.743 5.035-1.953.047-.031.124-.099.269-.244l17.558-17.563c2.927-2.93 2.926-7.678-.003-10.607z"/><g><path clip-rule="evenodd" d="m157.478 291.643-19.172-41.557-13.933-7.875-13.99 7.875-19.143 41.557c-.17.397-.312.425-.057.765l14.528 24.702h18.662 18.634l14.499-24.702c.283-.34.142-.368-.028-.765z" fill="#7bacdf" fill-rule="evenodd"/></g><g><path clip-rule="evenodd" d="m138.306 250.087 5.947-23.371 3.058-11.557-22.938-9.518-10.79 5.042-11.922 5.552 2.775 10.538 5.947 23.314h13.962z" fill="#3987d0" fill-rule="evenodd"/></g><g><path clip-rule="evenodd" d="m104.436 226.773 19.937-21.132-13.706-13.257-26.875-3.881-34.21 20.537 35.682 23.087c6.598 3.881 8.128 7.479 13.083 1.105z" fill="#cecece" fill-rule="evenodd"/></g><g><path clip-rule="evenodd" d="m163.51 232.127 35.682-23.087-34.209-20.538-20.73 1.36-19.88 15.779 19.88 21.076 6.174 6.515c4.955 6.373 6.456 2.776 13.083-1.105z" fill="#cecece" fill-rule="evenodd"/></g><g><path clip-rule="evenodd" d="m164.982 188.502c14.443-12.011 25.261-28.611 28.829-44.248.821-3.598 1.274-7.167 1.274-10.595v-41.754-5.156h-12.998c-27.526 0-33.275-33.937-66.918-33.937h-16.368c-25.77 0-6.145 39.092-35.795 39.092h-9.317v41.755c0 3.428.453 6.997 1.274 10.595 3.54 15.637 14.386 32.237 28.829 44.248 6.938 5.779 14.698 10.51 22.882 13.541 6.428 2.408 12.064 3.598 17.699 3.598 5.664 0 11.271-1.19 17.728-3.598 8.184-3.031 15.943-7.762 22.881-13.541z" fill="#ffe5c1" fill-rule="evenodd"/></g><g><path clip-rule="evenodd" d="m195.086 73.152c0-33.058-33.926-55.551-65.304-58.752h-14.896c-12.064 1.331-22.74 6.119-29.537 14.929-34.153 3.031-31.661 48.497-31.661 54.474v11.586 16.515h9.317c29.65 0 10.025-39.092 35.795-39.092h16.368c33.643 0 39.364 33.908 66.918 33.908h12.998v-10.283-23.285z" fill="#838383" fill-rule="evenodd"/></g><g><path clip-rule="evenodd" d="m195.086 86.749v-13.597c0-33.058-33.926-55.551-65.304-58.752h-14.811c30.585 4.164 62.557 26.316 62.557 58.412v13.597 5.184 4.532 10.283c1.444.198 2.973.312 4.559.312h12.998v-10.283-4.532-5.156z" fill="#595959" fill-rule="evenodd"/></g><g><path clip-rule="evenodd" d="m195.086 133.66v-21.756-5.184h-12.998c-1.586 0-3.115-.113-4.559-.312v26.883c0 3.428-.425 6.997-1.246 10.595-3.568 15.637-14.414 32.209-28.829 44.248-.68.567-1.388 1.105-2.067 1.671-2.634 2.04-5.352 3.966-8.184 5.666-4.05 2.493-8.297 4.589-12.659 6.204-1.048.397-2.096.765-3.143 1.105-2.294.737-4.503 1.331-6.683 1.728 3.313.765 6.485 1.133 9.657 1.133 5.664 0 11.271-1.19 17.728-3.598 8.184-3.031 15.944-7.762 22.882-13.541 14.443-12.011 25.261-28.611 28.829-44.248.819-3.597 1.272-7.167 1.272-10.594z" fill="#fed1a3" fill-rule="evenodd"/></g><g><path clip-rule="evenodd" d="m177.528 106.409c-23.731-3.456-30.641-33.597-62.359-33.597h-16.368c-9.515 0-12.857 5.326-14.754 12.068h18.747c31.717 0 38.627 30.112 62.359 33.597 13.112-.17 12.375-1.7 12.375 14.815 0 3.428-.425 6.997-1.246 10.595-3.568 15.637-14.414 32.209-28.829 44.248-.68.567-1.388 1.105-2.067 1.671-2.634 2.04-5.352 3.966-8.184 5.666-4.05 2.493-8.297 4.589-12.659 6.204-1.048.397-2.096.765-3.143 1.105-2.294.737-4.503 1.331-6.683 1.728 3.313.765 6.485 1.133 9.657 1.133 5.664 0 11.271-1.19 17.728-3.598 8.184-3.031 15.944-7.762 22.882-13.541 14.443-12.011 25.261-28.611 28.829-44.248.821-3.598 1.274-7.167 1.274-10.595v-21.756-5.184h-12.998c-1.588 0-3.117-.113-4.561-.311z" fill="#fed1a3" fill-rule="evenodd"/></g><g><path clip-rule="evenodd" d="m108.203 222.779 16.17-17.138c-3.172 0-6.343-.368-9.657-1.133-2.577-.595-5.211-1.416-8.043-2.465-8.184-3.031-15.944-7.762-22.882-13.541l-16.425 9.858c1.926 1.841 3.936 3.654 5.975 5.354 8.722 7.252 18.492 13.201 28.801 17.053.255.085.538.198.793.283 1.813.652 3.569 1.247 5.268 1.729z" fill="#b5adb6" fill-rule="evenodd"/></g><g><path clip-rule="evenodd" d="m146.632 220.768c10.308-3.853 20.05-9.801 28.772-17.053 2.067-1.7 4.078-3.513 6.004-5.354l-16.425-9.858c-6.938 5.779-14.698 10.51-22.882 13.541-6.457 2.408-12.064 3.598-17.728 3.598l16.199 17.138c1.671-.482 3.398-1.048 5.182-1.7.283-.114.594-.227.878-.312z" fill="#b5adb6" fill-rule="evenodd"/></g><g><path clip-rule="evenodd" d="m140.571 222.779-16.199-17.138-8.581 9.093 9.175 12.153 2.832 3.569c.878 1.076.651 1.246.312 2.606l-2.747 10.708-.991 6.317h13.933l5.947-23.37z" fill="#0067b4" fill-rule="evenodd"/></g><g><path clip-rule="evenodd" d="m157.478 291.643-19.172-41.557h-13.933l14.499 41.557c.17.397.283.425.028.765l-14.528 24.702h18.634l14.499-24.702c.284-.34.143-.368-.027-.765z" fill="#3987d0" fill-rule="evenodd"/></g><g><path clip-rule="evenodd" d="m241.274 257.622c0-28.554-18.492-34.418-42.082-48.582l-21.976 14.221c20.39 11.671 35.54 18.923 35.54 44.758v49.092h4.871 15.575c5.041 0 8.071.822 8.071-5.779v-53.71z" fill="#e2e2e2" fill-rule="evenodd"/></g><g><path clip-rule="evenodd" d="m504.5 492.175v-53.709c0-28.526-18.492-34.418-42.082-48.582h-149.638c-23.59 14.164-42.082 20.056-42.082 48.582v53.709c0 6.629 3.03 5.779 8.099 5.779h15.576 74.536 18.691 18.606 74.621 15.576c5.067 0 8.097.85 8.097-5.779zm-130.891-61.244" fill="#7bacdf" fill-rule="evenodd"/></g><g><path clip-rule="evenodd" d="m420.676 472.488-19.144-41.557-13.933-7.875-13.99 7.875-19.172 41.557c-.17.397-.312.425-.057.793l14.528 24.673h18.691 18.606l14.528-24.673c.254-.369.112-.397-.057-.793z" fill="#fe9737" fill-rule="evenodd"/></g><g><path clip-rule="evenodd" d="m401.532 430.931 5.947-23.371 3.058-11.557-22.938-9.49-10.79 5.014-11.922 5.552 2.775 10.566 5.947 23.286h13.961z" fill="#fe7600" fill-rule="evenodd"/></g><g><path clip-rule="evenodd" d="m367.662 407.645 19.937-21.132-13.706-13.257-26.903-3.909-34.209 20.538 35.682 23.115c6.627 3.853 8.128 7.45 13.112 1.076z" fill="#0078c8" fill-rule="evenodd"/></g><g><path clip-rule="evenodd" d="m426.736 412.999 35.682-23.115-34.209-20.538-20.73 1.388-19.88 15.779 19.88 21.047 6.145 6.515c4.984 6.374 6.485 2.777 13.112-1.076z" fill="#0078c8" fill-rule="evenodd"/></g><g><path clip-rule="evenodd" d="m428.208 369.346c14.414-12.011 25.261-28.583 28.829-44.22.821-3.626 1.246-7.167 1.246-10.623v-41.727-5.184h-12.998c-27.526 0-33.275-33.908-66.89-33.908h-16.397c-25.742 0-6.145 39.092-35.767 39.092h-9.317v41.727c0 3.456.425 6.997 1.246 10.623 3.568 15.637 14.414 32.209 28.829 44.22 6.938 5.779 14.726 10.51 22.91 13.569 6.428 2.408 12.064 3.598 17.699 3.598s11.271-1.19 17.699-3.598c8.185-3.059 15.973-7.79 22.911-13.569z" fill="#ffe5c1" fill-rule="evenodd"/></g><g><path clip-rule="evenodd" d="m458.283 253.996c0-33.058-33.898-55.551-65.275-58.752h-14.896c-12.064 1.331-22.74 6.119-29.565 14.957-34.153 3.003-31.632 48.469-31.632 54.474v11.586 16.487h9.317c29.622 0 10.025-39.092 35.767-39.092h16.397c33.643 0 39.364 33.937 66.89 33.937h12.998v-10.283-23.314z" fill="#838383" fill-rule="evenodd"/></g><g><path clip-rule="evenodd" d="m458.283 267.593v-13.597c0-33.058-33.898-55.551-65.275-58.752h-14.839c30.585 4.193 62.585 26.316 62.585 58.44v13.597 5.156 4.532 10.283c1.444.227 2.945.34 4.531.34h12.998v-10.282-4.532z" fill="#595959" fill-rule="evenodd"/></g><g><path clip-rule="evenodd" d="m458.283 314.504v-21.756-5.156h-12.998c-1.586 0-3.087-.113-4.531-.34v26.883c0 3.456-.425 6.997-1.246 10.623-3.568 15.637-14.414 32.209-28.857 44.22-.68.567-1.359 1.133-2.067 1.671-2.605 2.068-5.352 3.966-8.156 5.694-4.078 2.465-8.297 4.561-12.659 6.204-1.076.397-2.124.765-3.143 1.076-2.294.765-4.531 1.331-6.683 1.756 3.313.737 6.485 1.133 9.657 1.133 5.635 0 11.271-1.19 17.699-3.598 8.184-3.059 15.972-7.79 22.91-13.569 14.414-12.011 25.261-28.583 28.829-44.22.82-3.624 1.245-7.165 1.245-10.621z" fill="#fed1a3" fill-rule="evenodd"/></g><g><path clip-rule="evenodd" d="m440.754 287.253c-23.731-3.456-30.67-33.597-62.359-33.597h-16.397c-9.515 0-12.829 5.354-14.726 12.068h18.747c31.689 0 38.599 30.141 62.359 33.597 12.602 0 12.375-1.275 12.375 8.555v6.26c0 3.456-.425 6.997-1.246 10.623-3.568 15.637-14.414 32.209-28.857 44.22-.68.567-1.359 1.133-2.067 1.671-2.605 2.068-5.352 3.966-8.156 5.694-4.078 2.465-8.297 4.561-12.659 6.204-1.076.397-2.124.765-3.143 1.076-2.294.765-4.531 1.331-6.683 1.756 3.313.737 6.485 1.133 9.657 1.133 5.635 0 11.271-1.19 17.699-3.598 8.184-3.059 15.972-7.79 22.91-13.569 14.414-12.011 25.261-28.583 28.829-44.22.821-3.626 1.246-7.167 1.246-10.623v-21.756-5.156h-12.998c-1.586.002-3.087-.112-4.531-.338z" fill="#fed1a3" fill-rule="evenodd"/></g><g><path clip-rule="evenodd" d="m371.429 403.651 16.17-17.138c-3.172 0-6.343-.397-9.657-1.133-2.577-.595-5.239-1.416-8.043-2.465-8.184-3.059-15.972-7.79-22.91-13.569l-16.425 9.858c1.954 1.87 3.936 3.654 6.004 5.382 8.722 7.252 18.492 13.201 28.772 17.025.283.113.538.198.821.283 1.784.681 3.54 1.247 5.268 1.757z" fill="#0067b4" fill-rule="evenodd"/></g><g><path clip-rule="evenodd" d="m409.858 401.612c10.28-3.824 20.05-9.773 28.772-17.025 2.067-1.728 4.05-3.513 6.004-5.382l-16.425-9.858c-6.938 5.779-14.726 10.51-22.91 13.569-6.428 2.408-12.064 3.598-17.699 3.598l16.17 17.138c1.699-.51 3.427-1.076 5.211-1.7.282-.114.565-.227.877-.34z" fill="#0067b4" fill-rule="evenodd"/></g><g><path clip-rule="evenodd" d="m403.769 403.651-16.17-17.138-8.581 9.093 9.175 12.124 2.832 3.598c.85 1.076.651 1.246.311 2.578l-2.747 10.736-.991 6.289h13.933l5.947-23.37z" fill="#e6581f" fill-rule="evenodd"/></g><g><path clip-rule="evenodd" d="m420.676 472.488-19.144-41.557h-13.933l14.471 41.557c.17.397.312.425.057.793l-14.528 24.673h18.606l14.528-24.673c.254-.369.112-.397-.057-.793z" fill="#f36b37" fill-rule="evenodd"/></g><g><path clip-rule="evenodd" d="m504.5 438.466c0-28.526-18.492-34.418-42.082-48.582l-21.976 14.249c20.361 11.643 35.54 18.895 35.54 44.758v49.064h4.843 15.576c5.069 0 8.099.85 8.099-5.779z" fill="#3987d0" fill-rule="evenodd"/></g><path d="m475.662 388.892c-3.033-1.725-6.169-3.508-9.383-5.438l-25.645-15.396c11.631-11.876 20.369-26.557 23.719-41.274.95-4.193 1.431-8.325 1.431-12.279v-26.912-10.283-23.314c0-26.812-20.258-51.034-51.609-61.71-27.643-9.413-55.032-5.01-69.478 10.845-14.807 2.424-36.03 13.988-35.295 60.476.007.439.013.799.013 1.069v11.586 16.487 21.756c0 3.954.481 8.084 1.435 12.295 3.366 14.711 12.106 29.383 23.724 41.253l-25.654 15.401c-3.214 1.93-6.35 3.713-9.383 5.438-19.499 11.088-36.338 20.664-36.338 49.574v53.709c0 2.871.365 7.045 3.518 10.14 2.896 2.843 6.441 3.173 9.342 3.173.46 0 .903-.008 1.326-.016.449-.008.921-.018 1.414-.018h21.636c4.142 0 7.5-3.358 7.5-7.5s-3.358-7.5-7.5-7.5h-21.636c-.203 0-.402.001-.599.003v-51.991c0-20.185 10.213-25.992 28.753-36.535 1.838-1.045 3.719-2.118 5.641-3.233l31.792 20.595c.101.066.204.129.308.189 1.143.665 2.132 1.34 3.088 1.994 2.02 1.38 5.227 3.573 9.068 3.573 2.127 0 4.45-.678 6.871-2.534l1.964 7.692-18.051 39.127c-1.313 2.595-1.176 5.446.368 7.893l7.789 13.228h-22.025c-4.142 0-7.5 3.358-7.5 7.5s3.358 7.5 7.5 7.5h35.134c.005 0 .01.001.015.001s.01-.001.015-.001h18.669 18.584c.005 0 .01.001.015.001s.01-.001.015-.001h90.188c.493 0 .964.009 1.413.018.423.008.866.016 1.326.016 2.9 0 6.445-.33 9.342-3.173 3.153-3.095 3.518-7.27 3.518-10.14v-53.709c0-28.912-16.84-38.487-36.338-49.575zm-96.227 34.539-3.487-13.653 11.651-12.34 11.593 12.278-3.49 13.716h-16.267zm33.666-20.833c-.044-.05-.092-.096-.137-.145l-10.183-10.784c1.668-.495 3.375-1.066 5.139-1.727 7.265-2.711 14.31-6.666 20.843-11.515l19.486 11.699-25.447 16.484c-1.459.856-2.679 1.683-3.68 2.366-.015-.017-.031-.033-.046-.049zm-63.897-184.925c2.089-.184 4.005-1.233 5.285-2.894 11.372-14.76 35.743-14.8 54.851-8.294 19.119 6.511 41.444 22.86 41.444 47.511v23.314 2.783h-5.499c-10.104 0-16.527-6.029-24.658-13.662-9.623-9.033-21.599-20.275-42.232-20.275h-16.396c-18.538 0-21.684 15.344-23.564 24.511-2.385 11.63-3.896 14.581-12.203 14.581h-1.817v-8.987-11.586c0-.331-.006-.77-.015-1.307-.314-19.823 3.735-43.843 24.804-45.695zm-24.789 96.831v-14.256h1.817c21.448 0 24.859-16.631 26.897-26.567 2.232-10.886 3.393-12.525 8.87-12.525h16.396c14.696 0 22.699 7.513 31.966 16.211 8.851 8.308 18.882 17.725 34.924 17.725h5.499v19.412c0 2.841-.357 5.858-1.059 8.958-4.944 21.724-25.17 44.262-47.056 52.429-5.686 2.129-10.474 3.121-15.069 3.121s-9.383-.992-15.077-3.125c-21.849-8.152-42.076-30.694-47.046-52.417-.706-3.108-1.062-6.125-1.062-8.966zm31.706 94.423c-.016.017-.031.033-.046.05-1.001-.684-2.221-1.51-3.679-2.366l-25.447-16.485 19.491-11.701c6.531 4.851 13.572 8.806 20.83 11.514 1.767.662 3.477 1.234 5.147 1.73zm6.541 63.637 15.747-34.133h18.32l15.723 34.131-10.535 17.893h-14.318-14.403zm134.338 17.893c-.197-.002-.396-.003-.599-.003h-77.077l7.789-13.228c1.541-2.442 1.68-5.287.369-7.89l-18.026-39.131 1.968-7.732c2.441 1.889 4.783 2.575 6.927 2.575 3.84 0 7.048-2.192 9.067-3.572.956-.654 1.945-1.329 3.088-1.994.104-.061.207-.124.308-.189l31.792-20.595c1.922 1.115 3.803 2.187 5.641 3.233 18.54 10.543 28.753 16.35 28.753 36.535z"/><path d="m212.466 208.064c-3.042-1.729-6.189-3.518-9.414-5.454l-25.651-15.4c11.635-11.879 20.376-26.565 23.723-41.287.97-4.252 1.462-8.377 1.462-12.263v-26.94-10.283-23.285c0-26.827-20.278-51.061-51.662-61.739-27.635-9.403-55.004-5-69.429 10.848-14.81 2.435-36.042 14.013-35.319 60.488.007.433.013.787.013 1.054v11.586 16.515 21.756c0 3.887.492 8.013 1.461 12.257 3.347 14.725 12.088 29.414 23.723 41.293l-25.651 15.4c-3.225 1.937-6.371 3.725-9.414 5.454-19.483 11.073-36.308 20.636-36.308 49.558v53.709c0 2.864.364 7.031 3.516 10.126 2.911 2.859 6.478 3.184 9.39 3.184.447 0 .878-.008 1.29-.015.438-.008.897-.016 1.376-.016h23.731c4.142 0 7.5-3.358 7.5-7.5s-3.358-7.5-7.5-7.5h-23.732c-.193 0-.383.001-.571.003v-51.991c0-20.194 10.201-25.992 28.72-36.517 1.85-1.051 3.743-2.13 5.677-3.252l31.794 20.571c.089.058.18.114.271.167 1.131.666 2.113 1.341 3.062 1.995 2.032 1.399 5.262 3.624 9.124 3.623 2.124 0 4.44-.677 6.851-2.53l1.961 7.685-18.022 39.123c-1.315 2.595-1.16 5.508.398 7.922l7.764 13.202h-18.69c-4.142 0-7.5 3.358-7.5 7.5s3.358 7.5 7.5 7.5h31.794c.005 0 .01.001.015.001s.01-.001.015-.001h18.641 18.612c.005 0 .01.001.015.001s.01-.001.015-.001h90.188c.479 0 .938.008 1.376.016.412.007.843.015 1.29.015 2.911 0 6.479-.324 9.389-3.184 3.151-3.096 3.516-7.262 3.516-10.126v-53.709c-.002-28.923-16.827-38.486-36.31-49.559zm-96.256 34.523-3.486-13.666 11.652-12.353 11.595 12.28-3.496 13.739zm23.349-31.789c1.675-.496 3.39-1.067 5.164-1.729 7.251-2.706 14.284-6.653 20.806-11.492l19.488 11.7-25.448 16.465c-1.45.857-2.665 1.684-3.662 2.368-.009-.01-.018-.02-.027-.029zm-53.547-173.998c2.087-.186 4.002-1.236 5.281-2.896 11.348-14.746 35.699-14.787 54.799-8.29 19.141 6.513 41.493 22.871 41.493 47.539v23.286 2.783h-5.498c-10.125 0-16.554-6.027-24.693-13.658-9.623-9.022-21.599-20.25-42.226-20.25h-16.367c-18.552 0-21.699 15.344-23.579 24.512-2.385 11.629-3.896 14.58-12.217 14.58h-1.817v-9.015-11.588c0-.326-.006-.759-.015-1.287-.308-19.823 3.751-43.845 24.839-45.716zm-24.824 96.86v-14.256h1.817c21.462 0 24.873-16.63 26.911-26.566 2.233-10.887 3.396-12.526 8.885-12.526h16.368c14.694 0 22.698 7.504 31.966 16.193 8.857 8.304 18.896 17.715 34.952 17.715h5.498v19.44c0 2.765-.365 5.768-1.087 8.932-4.939 21.727-25.153 44.265-47.019 52.423-5.794 2.161-10.453 3.125-15.106 3.125-4.596 0-9.385-.992-15.078-3.125-21.867-8.159-42.081-30.697-47.021-52.43-.72-3.157-1.086-6.16-1.086-8.925zm31.704 94.426c-.009.01-.019.02-.029.03-.994-.684-2.207-1.511-3.653-2.369l-25.453-16.469 19.488-11.699c6.521 4.838 13.55 8.783 20.798 11.488 1.77.663 3.482 1.236 5.155 1.732l-10.352 10.975c-.004.004-.008.009-.012.013zm6.578 63.617 15.716-34.117h18.32l15.73 34.095-10.524 17.928h-14.339-14.372zm134.304 17.91c-.188-.002-.378-.003-.571-.003h-77.097l7.69-13.101c1.635-2.413 1.83-5.339.492-8.008l-18.058-39.141 1.969-7.738c2.438 1.898 4.778 2.586 6.922 2.586 3.849 0 7.068-2.212 9.093-3.604.956-.657 1.943-1.336 3.086-2.005.096-.056.19-.114.284-.175l31.794-20.571c1.934 1.122 3.827 2.201 5.677 3.252 18.519 10.525 28.72 16.323 28.72 36.517v51.991z"/></g></svg>