<?xml version="1.0" standalone="no"?>
<!DOCTYPE svg PUBLIC "-//W3C//DTD SVG 20010904//EN"
 "http://www.w3.org/TR/2001/REC-SVG-20010904/DTD/svg10.dtd">
<svg version="1.0" xmlns="http://www.w3.org/2000/svg"
 width="1920.000000pt" height="1080.000000pt" viewBox="0 0 1920.000000 1080.000000"
 preserveAspectRatio="xMidYMid meet">

<g transform="translate(0.000000,1080.000000) scale(0.100000,-0.100000)"
fill="#000000" stroke="none">
<path d="M0 5400 l0 -5400 9600 0 9600 0 0 5400 0 5400 -9600 0 -9600 0 0
-5400z m14554 4934 c3 -9 6 -1207 5 -2663 -1 -2109 -4 -2672 -14 -2776 -7 -71
-18 -177 -24 -235 -5 -57 -14 -106 -20 -108 -6 -2 -8 -17 -4 -34 4 -19 2 -29
-3 -25 -6 3 -10 -10 -10 -31 0 -20 -6 -66 -12 -102 -7 -36 -15 -81 -19 -100
-3 -19 -10 -38 -15 -41 -5 -3 -9 -17 -9 -30 -1 -50 -47 -230 -62 -240 -5 -3
-8 -10 -7 -15 3 -22 -13 -104 -21 -104 -5 0 -9 -9 -9 -21 0 -11 -5 -30 -12
-42 -7 -12 -13 -26 -13 -32 -3 -25 -18 -65 -25 -65 -4 0 -5 -11 -3 -24 3 -13
0 -27 -6 -30 -6 -4 -11 -16 -11 -27 0 -13 -4 -18 -12 -13 -6 4 -8 3 -4 -4 7
-11 -13 -62 -24 -62 -4 0 -7 -12 -7 -26 0 -14 -5 -35 -11 -47 -5 -12 -17 -38
-25 -57 -8 -19 -24 -55 -35 -80 -11 -25 -36 -82 -56 -127 -19 -45 -45 -99 -58
-120 -13 -21 -43 -79 -68 -128 -25 -49 -49 -94 -53 -99 -21 -28 -97 -159 -97
-167 0 -5 -4 -9 -9 -9 -5 0 -11 -8 -15 -17 -5 -17 -19 -41 -39 -67 -39 -54
-87 -129 -87 -136 0 -6 -4 -10 -9 -10 -8 0 -25 -23 -83 -115 -7 -11 -18 -24
-24 -30 -7 -5 -38 -44 -69 -85 -66 -87 -156 -190 -300 -346 -11 -12 -31 -35
-45 -52 -14 -17 -29 -31 -33 -32 -12 0 -57 -48 -57 -60 0 -5 -4 -10 -9 -10 -5
0 -31 -22 -59 -48 -28 -27 -79 -73 -113 -103 -35 -30 -86 -75 -113 -101 -28
-26 -54 -48 -59 -48 -6 0 -37 -24 -140 -106 -9 -8 -19 -14 -22 -14 -3 0 -13
-8 -23 -18 -35 -32 -62 -52 -72 -52 -6 0 -10 -7 -10 -15 0 -8 -9 -15 -20 -15
-11 0 -20 -4 -20 -10 0 -5 -6 -10 -13 -10 -7 0 -22 -8 -33 -19 -11 -10 -30
-22 -42 -25 -12 -4 -22 -12 -22 -17 0 -5 -7 -9 -15 -9 -8 0 -15 -5 -15 -11 0
-6 -7 -8 -16 -5 -8 3 -12 2 -9 -4 3 -6 -1 -10 -9 -10 -9 0 -16 -4 -16 -10 0
-5 -4 -10 -10 -10 -5 0 -34 -16 -64 -35 -30 -19 -59 -35 -65 -35 -5 0 -11 -4
-13 -9 -1 -5 -12 -11 -23 -13 -11 -1 -24 -8 -30 -15 -18 -21 -86 -54 -97 -47
-6 4 -8 2 -4 -4 3 -6 -7 -16 -24 -24 -16 -7 -30 -16 -30 -20 0 -5 -7 -8 -16
-8 -18 0 -77 -31 -82 -42 -2 -5 -14 -8 -27 -8 -13 0 -25 -3 -27 -7 -5 -13 -68
-43 -89 -43 -10 0 -19 -4 -19 -10 0 -5 -6 -10 -13 -10 -7 0 -37 -11 -65 -25
-29 -14 -58 -25 -65 -25 -7 0 -18 -5 -24 -11 -5 -5 -24 -11 -41 -11 -17 -1
-29 -5 -26 -10 3 -4 -8 -11 -25 -14 -17 -4 -31 -10 -31 -15 0 -5 -13 -9 -29
-9 -16 0 -31 -3 -33 -7 -5 -12 -107 -45 -117 -39 -5 3 -14 -1 -21 -9 -7 -8
-22 -15 -35 -15 -12 0 -25 -3 -29 -7 -8 -9 -90 -31 -143 -40 -18 -3 -33 -9
-33 -14 0 -5 -12 -9 -27 -9 -16 0 -48 -7 -73 -16 -25 -9 -57 -13 -71 -10 -18
3 -29 0 -33 -9 -3 -10 -20 -15 -46 -15 -22 0 -40 -4 -40 -10 0 -5 -16 -10 -36
-10 -20 0 -64 -7 -98 -16 -33 -9 -75 -13 -93 -11 -22 4 -35 1 -40 -8 -5 -8
-34 -15 -78 -17 -65 -4 -165 -13 -435 -38 -136 -13 -349 -13 -470 0 -112 11
-342 30 -453 37 -62 4 -77 8 -73 19 4 11 -2 13 -32 8 -21 -3 -63 1 -99 10 -33
9 -77 16 -96 16 -20 0 -39 5 -42 10 -3 6 -21 10 -39 10 -17 0 -37 5 -43 11 -6
6 -34 12 -63 14 -29 2 -58 9 -64 15 -5 5 -25 10 -43 10 -18 0 -33 5 -33 10 0
6 -9 10 -21 10 -11 0 -44 7 -72 16 -29 8 -70 20 -92 26 -22 7 -47 17 -55 23
-8 7 -21 10 -28 8 -7 -3 -18 0 -25 5 -7 6 -29 13 -49 17 -21 4 -38 11 -38 16
0 5 -13 9 -30 9 -20 0 -30 5 -30 15 0 8 -6 12 -14 9 -8 -3 -32 2 -53 11 -21 9
-47 21 -58 25 -11 4 -37 15 -58 25 -21 9 -54 19 -73 22 -19 3 -34 11 -34 19 0
8 -7 14 -17 14 -22 0 -93 32 -93 42 0 4 -9 8 -19 8 -11 0 -23 5 -26 10 -3 6
-14 10 -24 10 -10 0 -24 7 -31 15 -7 8 -21 15 -31 15 -11 0 -19 5 -19 10 0 6
-9 10 -20 10 -11 0 -20 4 -20 9 0 5 -8 11 -17 15 -10 3 -31 14 -48 25 -16 11
-40 20 -52 20 -14 1 -23 7 -23 16 0 8 -7 15 -15 15 -8 0 -15 5 -15 10 0 6 -5
10 -10 10 -6 0 -36 16 -66 35 -30 19 -59 35 -64 35 -6 0 -10 4 -10 9 0 5 -11
12 -25 15 -14 4 -25 11 -25 16 0 6 -7 10 -15 10 -8 0 -15 4 -15 8 0 4 -15 16
-32 27 -18 10 -35 21 -38 24 -3 4 -23 15 -45 26 -36 18 -57 34 -116 87 -10 10
-22 18 -25 18 -5 0 -93 68 -104 81 -3 3 -23 19 -46 35 -54 39 -135 107 -197
167 -27 26 -51 47 -53 47 -2 0 -24 20 -50 45 -25 25 -50 45 -55 45 -5 0 -9 6
-9 13 0 6 -15 23 -32 37 -37 29 -64 56 -133 133 -27 31 -63 71 -80 90 -57 62
-140 160 -155 181 -8 12 -46 62 -85 111 -39 50 -82 107 -95 127 -14 21 -28 38
-32 38 -5 0 -8 4 -8 10 0 5 -29 53 -65 105 -36 53 -65 100 -65 106 0 5 -4 9
-10 9 -5 0 -10 5 -10 11 0 6 -20 42 -45 80 -25 38 -45 74 -45 78 0 5 -3 11 -7
13 -11 4 -58 101 -56 115 0 7 -3 13 -8 13 -5 0 -21 24 -35 53 -15 28 -30 54
-35 55 -5 2 -9 12 -9 23 0 10 -4 19 -8 19 -9 0 -37 77 -35 97 0 7 -2 11 -6 8
-4 -2 -15 18 -25 46 -10 27 -23 49 -28 49 -6 0 -8 11 -6 25 3 13 1 22 -3 19
-5 -3 -9 2 -9 10 0 9 -4 16 -10 16 -5 0 -10 10 -10 23 0 13 -4 27 -8 33 -5 5
-21 43 -36 84 -15 41 -31 84 -36 95 -4 11 -16 45 -24 75 -9 30 -21 64 -25 75
-16 36 -41 127 -41 146 0 10 -4 21 -10 24 -5 3 -10 16 -10 27 0 23 -17 82 -32
111 -5 10 -11 44 -13 74 -2 31 -8 59 -13 62 -11 8 -46 194 -47 248 0 24 -3 36
-8 30 -5 -7 -6 4 -3 25 2 21 1 40 -3 43 -5 2 -12 35 -15 72 -4 38 -11 93 -16
123 -29 173 -39 637 -20 901 13 186 42 409 52 409 5 0 6 17 3 38 -5 29 -4 34
5 22 9 -12 10 -11 5 7 -3 12 1 61 10 110 9 48 19 106 22 128 4 22 12 46 20 53
7 8 11 18 7 23 -6 10 41 213 57 241 5 10 9 24 9 31 0 27 42 147 52 147 5 0 6
5 3 10 -8 12 16 80 28 80 4 0 5 5 2 10 -6 10 13 78 27 95 4 5 8 17 8 27 0 10
6 21 13 23 6 3 13 22 14 42 1 21 7 39 12 41 6 2 11 9 11 16 0 7 9 31 20 54 11
22 20 48 20 56 0 8 3 16 8 18 4 2 23 39 42 83 18 44 38 82 42 83 4 2 8 10 8
18 0 8 10 31 23 52 13 20 29 52 36 69 7 18 17 31 21 28 4 -3 7 1 7 8 -1 11 42
106 53 117 3 3 10 14 17 25 7 11 28 46 47 78 20 32 36 63 36 68 0 5 5 9 10 9
6 0 10 7 10 15 0 8 4 15 8 15 4 0 16 15 26 33 11 17 36 58 57 89 22 32 39 62
39 68 0 5 3 10 8 10 4 0 18 17 32 38 30 45 33 49 65 88 14 18 25 35 25 39 0 3
6 12 13 19 7 8 29 33 48 56 18 23 53 63 76 89 23 25 43 49 43 52 0 6 39 50
150 169 33 35 60 68 60 72 0 5 4 8 9 8 5 0 54 44 108 98 55 53 128 122 163
152 34 30 75 65 89 78 14 13 51 42 81 65 30 22 65 51 77 64 12 13 26 23 31 23
5 0 17 9 27 20 10 11 22 20 27 20 4 0 16 8 26 18 35 32 62 52 72 52 6 0 10 3
10 8 0 4 23 20 50 37 28 16 50 33 50 37 0 4 6 8 13 8 8 0 33 14 55 30 23 17
46 30 52 30 5 0 10 5 10 10 0 6 5 10 10 10 6 0 36 16 66 35 30 19 59 35 64 35
6 0 10 5 10 10 0 6 7 10 15 10 8 0 15 4 15 8 0 5 21 18 48 30 26 12 61 31 77
41 17 11 38 20 48 20 9 1 17 6 17 11 0 6 6 10 14 10 7 0 19 7 26 15 7 8 21 15
31 15 11 0 19 5 19 10 0 6 7 10 15 10 9 0 27 7 40 16 14 9 31 14 39 11 10 -4
13 -1 9 9 -4 10 3 14 25 14 17 0 32 6 36 15 3 8 15 15 26 15 11 0 42 9 68 21
26 12 56 25 67 29 11 4 36 15 57 24 20 9 43 16 52 16 9 0 16 5 16 10 0 6 14
10 30 10 17 0 30 4 30 8 0 11 116 45 128 38 6 -3 12 1 16 9 3 8 16 15 29 15
13 0 27 4 32 9 10 9 82 28 143 38 17 3 32 9 32 14 0 5 15 9 33 9 18 0 38 5 44
11 6 6 36 12 67 13 34 0 58 6 61 14 2 7 22 12 44 12 22 0 43 5 46 10 3 6 20
10 37 10 16 0 57 7 90 16 34 8 77 14 96 12 22 -2 37 2 40 10 2 8 26 12 70 12
37 0 87 5 112 11 24 5 123 14 218 19 95 4 176 11 179 14 4 3 1173 6 2599 6
2373 0 2592 -1 2598 -16z"/>
<path d="M8513 7643 c81 -2 213 -2 295 0 81 1 14 3 -148 3 -162 0 -229 -2
-147 -3z"/>
<path d="M8141 7334 c0 -11 3 -14 6 -6 3 7 2 16 -1 19 -3 4 -6 -2 -5 -13z"/>
<path d="M7858 6693 c7 -3 16 -2 19 1 4 3 -2 6 -13 5 -11 0 -14 -3 -6 -6z"/>
<path d="M6548 6383 c7 -3 16 -2 19 1 4 3 -2 6 -13 5 -11 0 -14 -3 -6 -6z"/>
<path d="M9448 6383 c7 -3 16 -2 19 1 4 3 -2 6 -13 5 -11 0 -14 -3 -6 -6z"/>
<path d="M9768 6383 c7 -3 16 -2 19 1 4 3 -2 6 -13 5 -11 0 -14 -3 -6 -6z"/>
<path d="M12258 6383 c7 -3 16 -2 19 1 4 3 -2 6 -13 5 -11 0 -14 -3 -6 -6z"/>
<path d="M13072 6330 c0 -19 2 -27 5 -17 2 9 2 25 0 35 -3 9 -5 1 -5 -18z"/>
<path d="M13071 6164 c0 -11 3 -14 6 -6 3 7 2 16 -1 19 -3 4 -6 -2 -5 -13z"/>
<path d="M5463 5465 c0 -38 2 -53 4 -32 2 20 2 52 0 70 -2 17 -4 1 -4 -38z"/>
<path d="M7331 5454 c0 -11 3 -14 6 -6 3 7 2 16 -1 19 -3 4 -6 -2 -5 -13z"/>
<path d="M7321 5354 c0 -11 3 -14 6 -6 3 7 2 16 -1 19 -3 4 -6 -2 -5 -13z"/>
<path d="M13071 4764 c0 -11 3 -14 6 -6 3 7 2 16 -1 19 -3 4 -6 -2 -5 -13z"/>
<path d="M6308 4273 c7 -3 16 -2 19 1 4 3 -2 6 -13 5 -11 0 -14 -3 -6 -6z"/>
<path d="M6478 4273 c7 -3 16 -2 19 1 4 3 -2 6 -13 5 -11 0 -14 -3 -6 -6z"/>
<path d="M9518 4273 c6 -2 18 -2 25 0 6 3 1 5 -13 5 -14 0 -19 -2 -12 -5z"/>
<path d="M9698 4273 c7 -3 16 -2 19 1 4 3 -2 6 -13 5 -11 0 -14 -3 -6 -6z"/>
<path d="M12018 4273 c7 -3 16 -2 19 1 4 3 -2 6 -13 5 -11 0 -14 -3 -6 -6z"/>
<path d="M10012 3615 c0 -16 2 -22 5 -12 2 9 2 23 0 30 -3 6 -5 -1 -5 -18z"/>
<path d="M10801 3594 c0 -11 3 -14 6 -6 3 7 2 16 -1 19 -3 4 -6 -2 -5 -13z"/>
<path d="M11671 3144 c0 -11 3 -14 6 -6 3 7 2 16 -1 19 -3 4 -6 -2 -5 -13z"/>
<path d="M11671 3064 c0 -11 3 -14 6 -6 3 7 2 16 -1 19 -3 4 -6 -2 -5 -13z"/>
<path d="M11672 3015 c0 -16 2 -22 5 -12 2 9 2 23 0 30 -3 6 -5 -1 -5 -18z"/>
<path d="M10053 2983 c32 -2 81 -2 110 0 29 2 3 3 -58 3 -60 0 -84 -1 -52 -3z"/>
<path d="M12118 2983 c28 -2 76 -2 105 0 28 2 5 3 -53 3 -58 0 -81 -1 -52 -3z"/>
<path d="M12681 2974 c0 -11 3 -14 6 -6 3 7 2 16 -1 19 -3 4 -6 -2 -5 -13z"/>
<path d="M12783 2983 c9 -2 25 -2 35 0 9 3 1 5 -18 5 -19 0 -27 -2 -17 -5z"/>
<path d="M12848 2983 c6 -2 18 -2 25 0 6 3 1 5 -13 5 -14 0 -19 -2 -12 -5z"/>
<path d="M11672 2960 c0 -14 2 -19 5 -12 2 6 2 18 0 25 -3 6 -5 1 -5 -13z"/>
<path d="M9038 2903 c6 -2 18 -2 25 0 6 3 1 5 -13 5 -14 0 -19 -2 -12 -5z"/>
<path d="M9308 293 c6 -2 18 -2 25 0 6 3 1 5 -13 5 -14 0 -19 -2 -12 -5z"/>
<path d="M9738 293 c7 -3 16 -2 19 1 4 3 -2 6 -13 5 -11 0 -14 -3 -6 -6z"/>
</g>
</svg>
